<svg xmlns="http://www.w3.org/2000/svg" viewBox="0 0 512 512" aria-hidden="true">
  <rect width="512" height="512" fill="#ffffff" rx="96" />
  <g transform="translate(256 256) scale(2.6) translate(-75 -71.5)">
    <g transform="scale(0.29 0.25)">
      <path
        fill="#E8A800"
        d="M510.498,203.255
           c-24.604-81.778-83.91-148.965-161.78-179.214
           c-4.509-1.745-6.396-2.274-6.396-2.274
           c-1.911-0.679-4.011-0.544-5.827,0.364
           c-1.809,0.908-3.166,2.519-3.766,4.453
           l-1.138,3.688 l-23.32,75.675
           c-2.795,9.072-12.425,14.165-21.505,11.37
           c-9.084-2.795-14.177-12.428-11.378-21.508
           l21.962-71.269 l1.705-5.543
           c0.636-2.061,0.344-4.296-0.801-6.128
           c-1.145-1.823-3.028-3.071-5.16-3.403
           c0,0,0.723,0.024-3.206-0.498
           c-11.066-1.46-22.369-2.218-33.889-2.218
           c-122.28,0-220.834,84.629-254.498,196.506
           c-5.958,19.803,7.332,27.336,13.514,28.726
           c99.797,22.392,181.07,92.461,217.558,184.52
           c8.002,31,11.129,66,10.726,140
           c4.213,0.205,8.441,0.323,12.701,0.323
           c4.26,0,8.488-0.118,12.7-0.323
           c-0.402,-70,2.724,-106,10.727,-140
           c36.487-92.058,117.756-162.127,217.561-184.52
           C503.17,230.591,516.459,223.058,510.498,203.255z"
      />
    </g>
  </g>
</svg>
